<svg xmlns="http://www.w3.org/2000/svg">
  <symbol id="logo" viewBox="0 0 64 64">
    <path d="M32 53C22.4748 53.0188 13.2062 49.9135 5.61501 44.16L1.28801 51.239C1.02133 51.6812 0.93764 52.2099 1.05473 52.7128C1.17182 53.2157 1.48045 53.6531 1.91501 53.932C10.8341 59.8459 21.2984 62.9999 32 62.9999C42.7016 62.9999 53.1659 59.8459 62.085 53.932C62.5196 53.6531 62.8282 53.2157 62.9453 52.7128C63.0624 52.2099 62.9787 51.6812 62.712 51.239L58.385 44.16C50.7938 49.9135 41.5252 53.0188 32 53V53Z" fill="#8A490E"/>
    <path d="M62.712 51.239L58.385 44.16C57.704 44.676 57.003 45.166 56.291 45.643L59.712 51.243C59.9787 51.6852 60.0624 52.2139 59.9453 52.7168C59.8282 53.2197 59.5196 53.6571 59.085 53.936C50.6013 59.5873 40.6905 62.7202 30.5 62.972C31 62.985 31.5 63 32 63C42.7054 63.0259 53.177 59.8696 62.085 53.932C62.5196 53.6531 62.8282 53.2157 62.9453 52.7128C63.0624 52.2099 62.9787 51.6812 62.712 51.239V51.239Z" fill="#A16D3E"/>
    <path d="M58.385 44.16C50.7846 49.896 41.522 52.999 32 52.999C22.478 52.999 13.2154 49.896 5.61501 44.16L26.206 10.48L32 1L37.794 10.48L58.385 44.16Z" fill="#F6B361"/>
    <path d="M37.794 10.48L32 1L30.5 3.454L34.794 10.48L55.385 44.16C48.202 49.6018 39.5069 52.6797 30.5 52.969C31 52.986 31.5 53 32 53C41.5251 53.0183 50.7935 49.913 58.385 44.16L37.794 10.48Z" fill="#F8C281"/>
    <path d="M37.65 10.48C36.8097 10.8267 35.909 11.0034 35 11C33.9619 10.999 32.9371 10.7667 32 10.32C31.0629 10.7667 30.0381 10.999 29 11C28.091 11.0034 27.1903 10.8267 26.35 10.48L32 1L37.65 10.48Z" fill="#FFFF97"/>
    <path d="M32 1L30.5 3.517L34.65 10.48C34.2802 10.6312 33.8977 10.7494 33.507 10.833C34.8915 11.1428 36.3378 11.0196 37.65 10.48L32 1Z" fill="#FFFFAC"/>
    <path d="M63.565 50.718L59.238 43.639L32.867 0.500001L32.859 0.488001L32.854 0.479001C32.8219 0.431092 32.7847 0.386829 32.743 0.347001C32.726 0.328001 32.713 0.305001 32.695 0.288001C32.5008 0.123441 32.2545 0.033123 32 0.033123C31.7455 0.033123 31.4992 0.123441 31.305 0.288001C31.286 0.306001 31.272 0.330001 31.254 0.350001C31.2138 0.389319 31.1776 0.432531 31.146 0.479001L31.141 0.487001L31.133 0.500001L4.762 43.639L0.435003 50.718C0.0351418 51.3808 -0.0919983 52.1729 0.0803417 52.9275C0.252682 53.6821 0.711061 54.3405 1.359 54.764C10.4428 60.7875 21.1005 63.9999 32 63.9999C42.8995 63.9999 53.5572 60.7875 62.641 54.764C63.2889 54.3405 63.7473 53.6821 63.9197 52.9275C64.092 52.1729 63.9649 51.3808 63.565 50.718V50.718ZM56.7 44.15C56.476 44.309 56.252 44.466 56.026 44.62C55.782 44.7873 55.5363 44.9513 55.289 45.112C55.057 45.263 54.824 45.412 54.589 45.559C54.354 45.706 54.094 45.865 53.844 46.014C53.594 46.163 53.366 46.298 53.125 46.435C52.884 46.572 52.625 46.717 52.37 46.855C52.115 46.993 51.881 47.12 51.635 47.247C51.389 47.374 51.122 47.508 50.864 47.635C50.606 47.762 50.364 47.88 50.117 47.997C49.87 48.114 49.596 48.236 49.335 48.352C49.074 48.468 48.827 48.578 48.571 48.685C48.315 48.792 48.042 48.902 47.771 49.007C47.5 49.112 47.259 49.207 47.001 49.307C46.743 49.407 46.457 49.507 46.184 49.599C45.911 49.691 45.668 49.781 45.409 49.867C45.133 49.957 44.855 50.042 44.577 50.127C44.317 50.206 44.057 50.288 43.796 50.362C43.512 50.443 43.227 50.517 42.941 50.591C42.682 50.659 42.423 50.73 42.163 50.791C41.871 50.862 41.576 50.924 41.283 50.991C41.025 51.048 40.768 51.107 40.509 51.159C40.209 51.22 39.9 51.272 39.595 51.326C39.343 51.371 39.095 51.419 38.839 51.46C38.521 51.51 38.201 51.551 37.881 51.595C37.637 51.628 37.395 51.665 37.15 51.695C36.814 51.735 36.476 51.765 36.138 51.795C35.907 51.817 35.677 51.844 35.445 51.862C35.07 51.892 34.691 51.91 34.314 51.93C34.114 51.94 33.923 51.956 33.727 51.964C33.155 51.988 32.5793 52 32 52C31.4207 52 30.8437 51.9887 30.269 51.966C30.069 51.958 29.878 51.942 29.682 51.932C29.305 51.912 28.926 51.894 28.551 51.864C28.319 51.846 28.089 51.819 27.858 51.797C27.52 51.765 27.182 51.735 26.846 51.697C26.601 51.668 26.358 51.631 26.114 51.597C25.795 51.553 25.475 51.512 25.157 51.462C24.904 51.421 24.657 51.373 24.4 51.328C24.1 51.274 23.79 51.222 23.487 51.161C23.228 51.109 22.971 51.05 22.713 50.993C22.42 50.928 22.125 50.866 21.833 50.793C21.573 50.73 21.314 50.659 21.055 50.593C20.769 50.519 20.484 50.445 20.2 50.364C19.939 50.29 19.679 50.208 19.419 50.129C19.141 50.044 18.863 49.959 18.587 49.869C18.328 49.783 18.07 49.691 17.812 49.601C17.539 49.501 17.266 49.41 16.995 49.309C16.724 49.208 16.481 49.109 16.225 49.009C15.969 48.909 15.694 48.798 15.425 48.687C15.156 48.576 14.915 48.467 14.661 48.354C14.407 48.241 14.138 48.121 13.879 47.999C13.62 47.877 13.379 47.76 13.131 47.637C12.883 47.514 12.617 47.382 12.362 47.25C12.107 47.118 11.87 46.99 11.626 46.857C11.382 46.724 11.121 46.58 10.871 46.437C10.621 46.294 10.391 46.158 10.152 46.016C9.913 45.874 9.652 45.716 9.407 45.561C9.162 45.406 8.94 45.261 8.707 45.114C8.474 44.967 8.214 44.789 7.97 44.622C7.744 44.468 7.52 44.311 7.296 44.152C7.178 44.068 7.061 43.982 6.944 43.896L26.661 11.651C28.4158 12.1825 30.2997 12.0982 32 11.412C33.6993 12.1029 35.5846 12.1876 37.339 11.652L57.05 43.894C56.933 43.98 56.816 44.066 56.7 44.15ZM36.137 9.894C34.8812 10.129 33.5832 9.9617 32.428 9.416C32.2942 9.35264 32.148 9.31978 32 9.31978C31.852 9.31978 31.7058 9.35264 31.572 9.416C30.4167 9.9615 29.1188 10.1288 27.863 9.894L32 2.953L36.137 9.894ZM61.529 53.1C52.7744 58.9037 42.5036 61.9989 32 61.9989C21.4964 61.9989 11.2256 58.9037 2.471 53.1C2.25078 52.965 2.0927 52.7485 2.03111 52.4976C1.96951 52.2467 2.00936 51.9817 2.142 51.76L5.9 45.614C6.005 45.689 6.113 45.759 6.218 45.833C6.44 45.991 6.664 46.145 6.889 46.298C7.15567 46.4813 7.426 46.6617 7.7 46.839C7.928 46.987 8.158 47.132 8.388 47.276C8.662 47.4467 8.93667 47.6133 9.212 47.776C9.44667 47.9147 9.682 48.0517 9.918 48.187C10.197 48.346 10.476 48.501 10.758 48.653C10.9967 48.7863 11.2367 48.914 11.478 49.036C11.76 49.182 12.0437 49.3247 12.329 49.464C12.574 49.585 12.82 49.704 13.067 49.819C13.354 49.954 13.642 50.083 13.932 50.211C14.181 50.321 14.432 50.431 14.681 50.536C14.973 50.659 15.266 50.776 15.56 50.892C15.813 50.992 16.067 51.092 16.322 51.192C16.622 51.302 16.916 51.407 17.215 51.511C17.471 51.601 17.727 51.691 17.986 51.776C18.286 51.876 18.586 51.967 18.895 52.06C19.154 52.139 19.412 52.219 19.673 52.293C19.981 52.381 20.291 52.461 20.602 52.542C20.861 52.61 21.119 52.68 21.379 52.742C21.695 52.818 22.012 52.886 22.33 52.956C22.59 53.012 22.848 53.072 23.109 53.124C23.433 53.189 23.76 53.245 24.085 53.302C24.342 53.348 24.597 53.396 24.854 53.437C25.191 53.491 25.53 53.537 25.868 53.58C26.119 53.614 26.368 53.653 26.62 53.68C26.976 53.723 27.335 53.754 27.694 53.788C27.929 53.81 28.163 53.837 28.394 53.856C28.794 53.887 29.194 53.907 29.594 53.928C29.794 53.938 29.994 53.954 30.194 53.962C30.7933 53.9873 31.3953 54 32 54C32.6047 54 33.207 53.988 33.807 53.964C34.007 53.956 34.207 53.94 34.402 53.93C34.802 53.909 35.202 53.889 35.602 53.858C35.837 53.84 36.071 53.812 36.302 53.79C36.661 53.756 37.02 53.725 37.377 53.682C37.629 53.653 37.877 53.614 38.129 53.582C38.467 53.537 38.806 53.493 39.143 53.439C39.4 53.398 39.655 53.35 39.912 53.304C40.237 53.247 40.564 53.191 40.888 53.126C41.149 53.074 41.407 53.014 41.667 52.958C41.985 52.888 42.302 52.82 42.618 52.744C42.878 52.681 43.136 52.611 43.395 52.544C43.706 52.463 44.016 52.383 44.324 52.295C44.585 52.221 44.843 52.141 45.102 52.062C45.402 51.969 45.71 51.877 46.011 51.778C46.27 51.693 46.526 51.603 46.782 51.513C47.082 51.413 47.382 51.304 47.675 51.194C47.93 51.094 48.183 50.994 48.436 50.894C48.731 50.777 49.024 50.66 49.316 50.537C49.567 50.432 49.816 50.323 50.065 50.213C50.354 50.084 50.643 49.955 50.93 49.82C51.177 49.705 51.423 49.586 51.668 49.465C51.9527 49.325 52.2363 49.1823 52.519 49.037C52.7597 48.9123 52.9997 48.7847 53.239 48.654C53.521 48.502 53.8 48.347 54.079 48.188C54.315 48.0547 54.5503 47.9177 54.785 47.777C55.061 47.613 55.3357 47.4463 55.609 47.277C55.839 47.133 56.069 46.988 56.297 46.84C56.569 46.6627 56.8393 46.4823 57.108 46.299C57.333 46.146 57.557 45.992 57.779 45.834C57.884 45.76 57.992 45.69 58.097 45.615L61.853 51.762C61.9855 51.9829 62.0257 52.247 61.9651 52.4974C61.9045 52.7477 61.7478 52.9642 61.529 53.1V53.1Z" fill="black"/>
    <path d="M32 23C33.6569 23 35 21.6569 35 20C35 18.3431 33.6569 17 32 17C30.3431 17 29 18.3431 29 20C29 21.6569 30.3431 23 32 23Z" fill="#FF0000"/>
    <path d="M32 24C31.2089 24 30.4355 23.7654 29.7777 23.3259C29.1199 22.8864 28.6072 22.2616 28.3045 21.5307C28.0017 20.7998 27.9225 19.9956 28.0769 19.2196C28.2312 18.4437 28.6122 17.731 29.1716 17.1716C29.731 16.6122 30.4437 16.2312 31.2196 16.0769C31.9956 15.9225 32.7998 16.0017 33.5307 16.3045C34.2616 16.6072 34.8864 17.1199 35.3259 17.7777C35.7654 18.4355 36 19.2089 36 20C36 21.0609 35.5786 22.0783 34.8284 22.8284C34.0783 23.5786 33.0609 24 32 24V24ZM32 18C31.6044 18 31.2178 18.1173 30.8889 18.3371C30.56 18.5568 30.3036 18.8692 30.1522 19.2346C30.0009 19.6001 29.9613 20.0022 30.0384 20.3902C30.1156 20.7781 30.3061 21.1345 30.5858 21.4142C30.8655 21.6939 31.2219 21.8844 31.6098 21.9616C31.9978 22.0387 32.3999 21.9991 32.7654 21.8478C33.1308 21.6964 33.4432 21.44 33.6629 21.1111C33.8827 20.7822 34 20.3956 34 20C34 19.4696 33.7893 18.9609 33.4142 18.5858C33.0391 18.2107 32.5304 18 32 18Z" fill="black"/>
    <path d="M18 44C19.6569 44 21 42.6569 21 41C21 39.3431 19.6569 38 18 38C16.3431 38 15 39.3431 15 41C15 42.6569 16.3431 44 18 44Z" fill="#FF0000"/>
    <path d="M18 45C17.2089 45 16.4355 44.7654 15.7777 44.3259C15.1199 43.8864 14.6072 43.2616 14.3045 42.5307C14.0017 41.7998 13.9225 40.9956 14.0769 40.2196C14.2312 39.4437 14.6122 38.731 15.1716 38.1716C15.731 37.6122 16.4437 37.2312 17.2196 37.0769C17.9956 36.9225 18.7998 37.0017 19.5307 37.3045C20.2616 37.6072 20.8864 38.1199 21.3259 38.7777C21.7654 39.4355 22 40.2089 22 41C22 42.0609 21.5786 43.0783 20.8284 43.8284C20.0783 44.5786 19.0609 45 18 45ZM18 39C17.6044 39 17.2178 39.1173 16.8889 39.3371C16.56 39.5568 16.3036 39.8692 16.1522 40.2346C16.0009 40.6001 15.9613 41.0022 16.0384 41.3902C16.1156 41.7781 16.3061 42.1345 16.5858 42.4142C16.8655 42.6939 17.2219 42.8844 17.6098 42.9616C17.9978 43.0387 18.3999 42.9991 18.7654 42.8478C19.1308 42.6964 19.4432 42.44 19.6629 42.1111C19.8827 41.7822 20 41.3956 20 41C20 40.4696 19.7893 39.9609 19.4142 39.5858C19.0391 39.2107 18.5304 39 18 39Z" fill="black"/>
    <path d="M46 44C47.6569 44 49 42.6569 49 41C49 39.3431 47.6569 38 46 38C44.3431 38 43 39.3431 43 41C43 42.6569 44.3431 44 46 44Z" fill="#FF0000"/>
    <path d="M46 45C45.2089 45 44.4355 44.7654 43.7777 44.3259C43.1199 43.8864 42.6072 43.2616 42.3045 42.5307C42.0017 41.7998 41.9225 40.9956 42.0769 40.2196C42.2312 39.4437 42.6122 38.731 43.1716 38.1716C43.731 37.6122 44.4437 37.2312 45.2196 37.0769C45.9956 36.9225 46.7998 37.0017 47.5307 37.3045C48.2616 37.6072 48.8864 38.1199 49.3259 38.7777C49.7654 39.4355 50 40.2089 50 41C50 42.0609 49.5786 43.0783 48.8284 43.8284C48.0783 44.5786 47.0609 45 46 45ZM46 39C45.6044 39 45.2178 39.1173 44.8889 39.3371C44.56 39.5568 44.3036 39.8692 44.1522 40.2346C44.0009 40.6001 43.9613 41.0022 44.0384 41.3902C44.1156 41.7781 44.3061 42.1345 44.5858 42.4142C44.8655 42.6939 45.2219 42.8844 45.6098 42.9616C45.9978 43.0387 46.3999 42.9991 46.7654 42.8478C47.1308 42.6964 47.4432 42.44 47.6629 42.1111C47.8827 41.7822 48 41.3956 48 41C48 40.4696 47.7893 39.9609 47.4142 39.5858C47.0391 39.2107 46.5304 39 46 39Z" fill="black"/>
    <path d="M32 47C33.6569 47 35 45.6569 35 44C35 42.3431 33.6569 41 32 41C30.3431 41 29 42.3431 29 44C29 45.6569 30.3431 47 32 47Z" fill="#FF0000"/>
    <path d="M32 48C31.2089 48 30.4355 47.7654 29.7777 47.3259C29.1199 46.8864 28.6072 46.2616 28.3045 45.5307C28.0017 44.7998 27.9225 43.9956 28.0769 43.2196C28.2312 42.4437 28.6122 41.731 29.1716 41.1716C29.731 40.6122 30.4437 40.2312 31.2196 40.0769C31.9956 39.9225 32.7998 40.0017 33.5307 40.3045C34.2616 40.6072 34.8864 41.1199 35.3259 41.7777C35.7654 42.4355 36 43.2089 36 44C36 45.0609 35.5786 46.0783 34.8284 46.8284C34.0783 47.5786 33.0609 48 32 48V48ZM32 42C31.6044 42 31.2178 42.1173 30.8889 42.3371C30.56 42.5568 30.3036 42.8692 30.1522 43.2346C30.0009 43.6001 29.9613 44.0022 30.0384 44.3902C30.1156 44.7781 30.3061 45.1345 30.5858 45.4142C30.8655 45.6939 31.2219 45.8844 31.6098 45.9616C31.9978 46.0387 32.3999 45.9991 32.7654 45.8478C33.1308 45.6964 33.4432 45.44 33.6629 45.1111C33.8827 44.7822 34 44.3956 34 44C34 43.4696 33.7893 42.9609 33.4142 42.5858C33.0391 42.2107 32.5304 42 32 42Z" fill="black"/>
    <path d="M24 33C25.6569 33 27 31.6569 27 30C27 28.3431 25.6569 27 24 27C22.3431 27 21 28.3431 21 30C21 31.6569 22.3431 33 24 33Z" fill="#FF0000"/>
    <path d="M24 34C23.2089 34 22.4355 33.7654 21.7777 33.3259C21.1199 32.8864 20.6072 32.2616 20.3045 31.5307C20.0017 30.7998 19.9225 29.9956 20.0769 29.2196C20.2312 28.4437 20.6122 27.731 21.1716 27.1716C21.731 26.6122 22.4437 26.2312 23.2196 26.0769C23.9956 25.9225 24.7998 26.0017 25.5307 26.3045C26.2616 26.6072 26.8864 27.1199 27.3259 27.7777C27.7654 28.4355 28 29.2089 28 30C28 31.0609 27.5786 32.0783 26.8284 32.8284C26.0783 33.5786 25.0609 34 24 34ZM24 28C23.6044 28 23.2178 28.1173 22.8889 28.3371C22.56 28.5568 22.3036 28.8692 22.1522 29.2346C22.0009 29.6001 21.9613 30.0022 22.0384 30.3902C22.1156 30.7781 22.3061 31.1345 22.5858 31.4142C22.8655 31.6939 23.2219 31.8844 23.6098 31.9616C23.9978 32.0387 24.3999 31.9991 24.7654 31.8478C25.1308 31.6964 25.4432 31.44 25.6629 31.1111C25.8827 30.7822 26 30.3956 26 30C26 29.4696 25.7893 28.9609 25.4142 28.5858C25.0391 28.2107 24.5304 28 24 28Z" fill="black"/>
    <path d="M40 33C41.6569 33 43 31.6569 43 30C43 28.3431 41.6569 27 40 27C38.3431 27 37 28.3431 37 30C37 31.6569 38.3431 33 40 33Z" fill="#FF0000"/>
    <path d="M40 34C39.2089 34 38.4355 33.7654 37.7777 33.3259C37.1199 32.8864 36.6072 32.2616 36.3045 31.5307C36.0017 30.7998 35.9225 29.9956 36.0769 29.2196C36.2312 28.4437 36.6122 27.731 37.1716 27.1716C37.731 26.6122 38.4437 26.2312 39.2196 26.0769C39.9956 25.9225 40.7998 26.0017 41.5307 26.3045C42.2616 26.6072 42.8864 27.1199 43.3259 27.7777C43.7654 28.4355 44 29.2089 44 30C44 31.0609 43.5786 32.0783 42.8284 32.8284C42.0783 33.5786 41.0609 34 40 34ZM40 28C39.6044 28 39.2178 28.1173 38.8889 28.3371C38.56 28.5568 38.3036 28.8692 38.1522 29.2346C38.0009 29.6001 37.9613 30.0022 38.0384 30.3902C38.1156 30.7781 38.3061 31.1345 38.5858 31.4142C38.8655 31.6939 39.2219 31.8844 39.6098 31.9616C39.9978 32.0387 40.3999 31.9991 40.7654 31.8478C41.1308 31.6964 41.4432 31.44 41.6629 31.1111C41.8827 30.7822 42 30.3956 42 30C42 29.4696 41.7893 28.9609 41.4142 28.5858C41.0391 28.2107 40.5304 28 40 28Z" fill="black"/>
    <path d="M27 38H25C24.7348 38 24.4804 37.8946 24.2929 37.7071C24.1054 37.5196 24 37.2652 24 37C24 36.7348 24.1054 36.4804 24.2929 36.2929C24.4804 36.1054 24.7348 36 25 36H27C27.2652 36 27.5196 36.1054 27.7071 36.2929C27.8946 36.4804 28 36.7348 28 37C28 37.2652 27.8946 37.5196 27.7071 37.7071C27.5196 37.8946 27.2652 38 27 38Z" fill="#D39953"/>
    <path d="M39 38H37C36.7348 38 36.4804 37.8946 36.2929 37.7071C36.1054 37.5196 36 37.2652 36 37C36 36.7348 36.1054 36.4804 36.2929 36.2929C36.4804 36.1054 36.7348 36 37 36H39C39.2652 36 39.5196 36.1054 39.7071 36.2929C39.8946 36.4804 40 36.7348 40 37C40 37.2652 39.8946 37.5196 39.7071 37.7071C39.5196 37.8946 39.2652 38 39 38Z" fill="#D39953"/>
    <path d="M33 30H31C30.7348 30 30.4804 29.8946 30.2929 29.7071C30.1054 29.5196 30 29.2652 30 29C30 28.7348 30.1054 28.4804 30.2929 28.2929C30.4804 28.1054 30.7348 28 31 28H33C33.2652 28 33.5196 28.1054 33.7071 28.2929C33.8946 28.4804 34 28.7348 34 29C34 29.2652 33.8946 29.5196 33.7071 29.7071C33.5196 29.8946 33.2652 30 33 30Z" fill="#D39953"/>
    <path d="M25 24H23C22.7348 24 22.4804 23.8946 22.2929 23.7071C22.1054 23.5196 22 23.2652 22 23C22 22.7348 22.1054 22.4804 22.2929 22.2929C22.4804 22.1054 22.7348 22 23 22H25C25.2652 22 25.5196 22.1054 25.7071 22.2929C25.8946 22.4804 26 22.7348 26 23C26 23.2652 25.8946 23.5196 25.7071 23.7071C25.5196 23.8946 25.2652 24 25 24Z" fill="#D39953"/>
    <path d="M41 24H39C38.7348 24 38.4804 23.8946 38.2929 23.7071C38.1054 23.5196 38 23.2652 38 23C38 22.7348 38.1054 22.4804 38.2929 22.2929C38.4804 22.1054 38.7348 22 39 22H41C41.2652 22 41.5196 22.1054 41.7071 22.2929C41.8946 22.4804 42 22.7348 42 23C42 23.2652 41.8946 23.5196 41.7071 23.7071C41.5196 23.8946 41.2652 24 41 24Z" fill="#D39953"/>
  </symbol>
  <symbol id="cart" viewBox="0 0 18 18">
    <path d="M6.33333 16.3333C7.06971 16.3333 7.66667 15.7364 7.66667 15C7.66667 14.2636 7.06971 13.6667 6.33333 13.6667C5.59695 13.6667 5 14.2636 5 15C5 15.7364 5.59695 16.3333 6.33333 16.3333Z" />
    <path d="M14.3333 16.3333C15.0697 16.3333 15.6667 15.7364 15.6667 15C15.6667 14.2636 15.0697 13.6667 14.3333 13.6667C13.597 13.6667 13 14.2636 13 15C13 15.7364 13.597 16.3333 14.3333 16.3333Z" />
    <path d="M4.78002 4.99999H16.3334L15.2134 10.5933C15.1524 10.9003 14.9854 11.176 14.7417 11.3722C14.4979 11.5684 14.1929 11.6727 13.88 11.6667H6.83335C6.50781 11.6694 6.1925 11.553 5.94689 11.3393C5.70128 11.1256 5.54233 10.8295 5.50002 10.5067L4.48669 2.82666C4.44466 2.50615 4.28764 2.21182 4.04482 1.99844C3.80201 1.78505 3.48994 1.66715 3.16669 1.66666H1.66669" />
  </symbol>
  <symbol id="minus" viewBox="0 0 10 2">
    <path d="M5.75997 1.92001H3.83997H0.959969C0.429809 1.92001 -3.05408e-05 1.49017 -3.05176e-05 0.96001C-3.04945e-05 0.42985 0.429809 1.00136e-05 0.959969 1.00136e-05L3.83997 0L5.75997 1.00136e-05H8.63997C9.17013 1.00136e-05 9.59997 0.42985 9.59997 0.96001C9.59997 1.49017 9.17013 1.92001 8.63997 1.92001H5.75997Z" fill="currentColor"/>
  </symbol>
  <symbol id="plus" viewBox="0 0 10 10">
    <path d="M5.92001 3.84V5.76V8.64C5.92001 9.17016 5.49017 9.6 4.96001 9.6C4.42985 9.6 4.00001 9.17016 4.00001 8.64L4 5.76L4.00001 3.84V0.96C4.00001 0.42984 4.42985 0 4.96001 0C5.49017 0 5.92001 0.42984 5.92001 0.96V3.84Z" fill="currentColor"/>
    <path d="M5.75998 5.92001L3.83998 5.92001L0.959977 5.92001C0.429817 5.92001 -2.29533e-05 5.49017 -2.29301e-05 4.96001C-2.2907e-05 4.42985 0.429817 4.00001 0.959977 4.00001L3.83998 4L5.75998 4.00001L8.63998 4.00001C9.17014 4.00001 9.59998 4.42985 9.59998 4.96001C9.59998 5.49017 9.17014 5.92001 8.63998 5.92001L5.75998 5.92001Z" fill="currentColor"/>
  </symbol>
  <symbol id="trash" viewBox="0 0 100 100">
    <path d="M 41.146484 13 C 38.309484 13 36 15.400516 36 18.353516 L 36 20 L 29.271484 20 C 20.784484 20 17 23.628672 17 31.763672 L 17 32 L 17 37 C 17 37.265 17.104969 37.520031 17.292969 37.707031 L 22 42.414062 L 22 45.019531 C 19.720904 45.484373 18 47.503605 18 49.917969 L 18 53.917969 C 18 56.332332 19.720904 58.349612 22 58.814453 L 22 75.308594 C 22 82.301594 27.129625 87 34.765625 87 L 65.035156 87 C 72.790156 87 78 82.301594 78 75.308594 L 78 58.814453 C 80.279096 58.349435 82 56.331456 82 53.917969 L 82 49.917969 C 82 47.503605 80.279096 45.484373 78 45.019531 L 78 42.335938 L 82.701172 37.712891 C 82.892172 37.524891 83 37.268 83 37 L 83 32 L 83 31.763672 C 83 23.628672 79.214562 20 70.726562 20 L 64 20 L 64 18.353516 C 64 15.400516 61.690516 13 58.853516 13 L 41.146484 13 z M 41.146484 15 L 58.853516 15 C 60.588516 15 62 16.503516 62 18.353516 L 62 20 L 38 20 L 38 18.353516 C 38 16.503516 39.411484 15 41.146484 15 z M 29.271484 22 L 70.728516 22 C 77.751516 22 80.772281 24.62 80.988281 31 L 19.013672 31 C 19.037903 30.284297 19.102703 29.622679 19.199219 29 L 72.5 29 C 72.776 29 73 28.776 73 28.5 C 73 28.224 72.776 28 72.5 28 L 19.394531 28 C 20.412123 23.791139 23.476889 22 29.271484 22 z M 75.5 28 C 75.224 28 75 28.224 75 28.5 C 75 28.776 75.224 29 75.5 29 L 78.5 29 C 78.776 29 79 28.776 79 28.5 C 79 28.224 78.776 28 78.5 28 L 75.5 28 z M 19 33 L 81 33 L 81 35 L 19 35 L 19 33 z M 19 36 L 81 36 L 81 36.580078 L 76.298828 41.203125 C 76.107828 41.391125 76 41.649969 76 41.917969 L 76 45.917969 L 76 57.917969 L 76 75.308594 C 76 77.699141 75.331005 79.562683 74.263672 81 L 25.705078 81 C 24.657058 79.562673 24 77.699185 24 75.308594 L 24 57.917969 L 24 45.917969 L 24 42 C 24 41.735 23.895031 41.479969 23.707031 41.292969 L 19 36.585938 L 19 36 z M 32 39.917969 C 30.346 39.917969 29 41.263969 29 42.917969 L 29 60.5 C 29 60.776 29.224 61 29.5 61 C 29.776 61 30 60.776 30 60.5 L 30 42.917969 C 30 41.814969 30.897 40.917969 32 40.917969 C 33.103 40.917969 34 41.814969 34 42.917969 L 34 73.917969 C 34 75.020969 33.103 75.917969 32 75.917969 C 30.897 75.917969 30 75.020969 30 73.917969 L 30 70.5 C 30 70.224 29.776 70 29.5 70 C 29.224 70 29 70.224 29 70.5 L 29 73.917969 C 29 75.571969 30.346 76.917969 32 76.917969 C 33.654 76.917969 35 75.571969 35 73.917969 L 35 42.917969 C 35 41.263969 33.654 39.917969 32 39.917969 z M 44 40 C 42.346 40 41 41.346 41 43 L 41 74 C 41 75.654 42.346 77 44 77 C 45.654 77 47 75.654 47 74 L 47 43 C 47 41.346 45.654 40 44 40 z M 56 40 C 54.346 40 53 41.346 53 43 L 53 74 C 53 75.654 54.346 77 56 77 C 57.654 77 59 75.654 59 74 L 59 43 C 59 41.346 57.654 40 56 40 z M 68 40 C 66.346 40 65 41.346 65 43 L 65 74 C 65 75.654 66.346 77 68 77 C 69.654 77 71 75.654 71 74 L 71 43 C 71 41.346 69.654 40 68 40 z M 44 41 C 45.103 41 46 41.897 46 43 L 46 74 C 46 75.103 45.103 76 44 76 C 42.897 76 42 75.103 42 74 L 42 43 C 42 41.897 42.897 41 44 41 z M 56 41 C 57.103 41 58 41.897 58 43 L 58 74 C 58 75.103 57.103 76 56 76 C 54.897 76 54 75.103 54 74 L 54 43 C 54 41.897 54.897 41 56 41 z M 68 41 C 69.103 41 70 41.897 70 43 L 70 74 C 70 75.103 69.103 76 68 76 C 66.897 76 66 75.103 66 74 L 66 43 C 66 41.897 66.897 41 68 41 z M 22 47.087891 L 22 56.746094 C 20.836 56.333094 20 55.221969 20 53.917969 L 20 49.917969 C 20 48.613969 20.836 47.500891 22 47.087891 z M 78 47.087891 C 79.164 47.499891 80 48.613016 80 49.916016 L 80 53.916016 C 80 55.220016 79.164 56.331141 78 56.744141 L 78 47.087891 z M 29.5 62 C 29.224 62 29 62.224 29 62.5 L 29 65.5 C 29 65.776 29.224 66 29.5 66 C 29.776 66 30 65.776 30 65.5 L 30 62.5 C 30 62.224 29.776 62 29.5 62 z M 26.5625 82 L 73.390625 82 C 71.203553 84.130185 67.979596 85 65.035156 85 L 34.765625 85 C 31.874792 85 28.709915 84.130103 26.5625 82 z" fill="currentColor"/>
  </symbol>
  <symbol id="search" viewBox="0 0 24 24">
    <path fill-rule="evenodd" clip-rule="evenodd" d="M2 10C2 5.58172 5.58172 2 10 2C14.4183 2 18 5.58172 18 10C18 14.4183 14.4183 18 10 18C5.58172 18 2 14.4183 2 10ZM10 0C4.47715 0 0 4.47715 0 10C0 15.5228 4.47715 20 10 20C12.4013 20 14.6049 19.1536 16.3287 17.7429L22.2929 23.7071C22.6834 24.0976 23.3166 24.0976 23.7071 23.7071C24.0976 23.3166 24.0976 22.6834 23.7071 22.2929L17.7429 16.3287C19.1536 14.6049 20 12.4013 20 10C20 4.47715 15.5228 0 10 0Z" fill="currentColor"/>
  </symbol>
  <symbol id="clear" viewBox="0 0 20 20">
    <path fill-rule="evenodd" clip-rule="evenodd" d="M1.70711 0.292893C1.31658 -0.0976311 0.683417 -0.0976311 0.292893 0.292893C-0.0976311 0.683417 -0.0976311 1.31658 0.292893 1.70711L8.58579 10L0.292893 18.2929C-0.0976311 18.6834 -0.0976311 19.3166 0.292893 19.7071C0.683417 20.0976 1.31658 20.0976 1.70711 19.7071L10 11.4142L18.2929 19.7071C18.6834 20.0976 19.3166 20.0976 19.7071 19.7071C20.0976 19.3166 20.0976 18.6834 19.7071 18.2929L11.4142 10L19.7071 1.70711C20.0976 1.31658 20.0976 0.683417 19.7071 0.292893C19.3166 -0.0976311 18.6834 -0.0976311 18.2929 0.292893L10 8.58579L1.70711 0.292893Z" fill="currentColor"/>
  </symbol>
</svg>
